<svg width="830" height="300" viewBox="0 0 830 300" fill="none" xmlns="http://www.w3.org/2000/svg">
<path d="M267.392 40.0886C268.724 40.3709 269.273 41.9172 268.525 43.0538C260.103 55.8426 251.094 74.7123 245.44 100.235C237.218 137.348 226.296 162.849 213.666 181.764C212.86 182.972 211.286 183.411 210.012 182.714C186.486 169.845 180.276 130.698 196.421 93.0136C211.869 56.9553 242.406 34.7903 267.392 40.0886Z" fill="#ca8a04"/>
<path d="M282.95 45.2297C281.696 44.5688 280.168 44.99 279.361 46.1558C270.483 58.9911 260.07 78.6717 255.757 103.602C246.451 142.877 234.628 168.075 223.78 184.916C223.064 186.027 223.583 187.519 224.865 187.837C250.062 194.098 281.319 171.807 297.01 135.182C313.262 97.249 306.862 57.8331 282.95 45.2297Z" fill="#ca8a04"/>
<path d="M70.2606 78.6446C71.4623 78.006 72.8895 78.8122 73.0616 80.1621C75.5145 99.4003 82.4899 125.118 98.3825 154.501C121.38 197.019 132.021 230.556 135.521 259.178C135.697 260.619 134.794 261.979 133.38 262.308C100.16 270.03 61.4958 237.722 45.6566 188.117C30.4854 140.604 41.5759 93.8876 70.2606 78.6446Z" fill="#ca8a04"/>
<path d="M86.1879 72.8393C84.8121 73.1809 83.9312 74.497 84.0798 75.9067C86.1486 95.5266 92.4352 123.2 109.099 150.841C132.887 196.403 142.389 230.41 145.88 255.505C146.062 256.814 147.431 257.604 148.618 257.024C178.281 242.529 189.946 195.114 174.544 146.878C158.604 96.9578 119.548 64.5548 86.1879 72.8393Z" fill="#ca8a04"/>

</svg>
